<svg xmlns="http://www.w3.org/2000/svg" width="512" height="512" viewBox="0 0 100 100">
  
  <path d="M 8.7 35.0 A 44 44 0 0 1 83.7 21.7" fill="none" stroke="#E8821E" stroke-width="8" stroke-linecap="round"></path>
  <polygon points="89.1,17.2 78.3,26.2 90.8,30.1" fill="#E8821E"></polygon>
  <path d="M 91.3 65.0 A 44 44 0 0 1 16.3 78.3" fill="none" stroke="#E8821E" stroke-width="8" stroke-linecap="round"></path>
  <polygon points="10.9,82.8 21.7,73.8 9.2,69.9" fill="#E8821E"></polygon>
  <circle cx="50" cy="50" r="32" fill="#E8821E"></circle>
  <circle cx="50" cy="40" r="10" fill="#F5B81C"></circle>
  <rect x="24" y="56" width="52" height="4" rx="2" fill="#232019"></rect>
  <rect x="35.2" y="38" width="3.6" height="20" rx="1.8" fill="#232019"></rect>
  <rect x="61.2" y="38" width="3.6" height="20" rx="1.8" fill="#232019"></rect>
  <path d="M 24 57 L 37 40 Q 50 56 63 40 L 76 57" fill="none" stroke="#232019" stroke-width="2.8" stroke-linecap="round" stroke-linejoin="round"></path>
  <path d="M 44 46.3 L 44 56 M 50 48 L 50 56 M 56 46.3 L 56 56" fill="none" stroke="#232019" stroke-width="1.8"></path>
  <path d="M 29 68 Q 36 64.5 43 68 Q 50 71.5 57 68 Q 64 64.5 71 68" fill="none" stroke="#FBFAF6" stroke-width="3" stroke-linecap="round"></path>
</svg>