<svg xmlns="http://www.w3.org/2000/svg" width="64" height="64" viewBox="0 0 100 100">
  
  <path d="M 8.7 35.0 A 44 44 0 0 1 83.7 21.7" fill="none" stroke="#E8821E" stroke-width="9" stroke-linecap="round"></path>
  <polygon points="89.1,17.2 78.3,26.2 90.8,30.1" fill="#E8821E"></polygon>
  <path d="M 91.3 65.0 A 44 44 0 0 1 16.3 78.3" fill="none" stroke="#E8821E" stroke-width="9" stroke-linecap="round"></path>
  <polygon points="10.9,82.8 21.7,73.8 9.2,69.9" fill="#E8821E"></polygon>
  <circle cx="50" cy="50" r="32" fill="#E8821E"></circle>
  <circle cx="50" cy="40" r="10" fill="#F5B81C"></circle>
  <rect x="22" y="55" width="56" height="5" fill="#232019"></rect>
  <rect x="34.5" y="37" width="5" height="20" fill="#232019"></rect>
  <rect x="60.5" y="37" width="5" height="20" fill="#232019"></rect>
  <path d="M 22 56 L 37 39 Q 50 55 63 39 L 78 56" fill="none" stroke="#232019" stroke-width="4" stroke-linecap="round" stroke-linejoin="round"></path>
</svg>